<svg id="the-svg" height="500" width="500"><circle class="clock-circumference" r="250" cx="250" cy="250" stroke="black" stroke-width="2" fill="none"></circle><circle class="clock-center" r="3" cx="250" cy="250" stroke="black" stroke-width="2" fill="none"></circle><rect x="250" y="250" stroke="black" width="9" height="29" transform="rotate(0,250,250) translate (-4.5,-250)"></rect><rect x="250" y="250" stroke="black" width="9" height="29" transform="rotate(30,250,250) translate (-4.5,-250)"></rect><rect x="250" y="250" stroke="black" width="9" height="29" transform="rotate(60,250,250) translate (-4.5,-250)"></rect><rect x="250" y="250" stroke="black" width="9" height="29" transform="rotate(90,250,250) translate (-4.5,-250)"></rect><rect x="250" y="250" stroke="black" width="9" height="29" transform="rotate(120,250,250) translate (-4.5,-250)"></rect><rect x="250" y="250" stroke="black" width="9" height="29" transform="rotate(150,250,250) translate (-4.5,-250)"></rect><rect x="250" y="250" stroke="black" width="9" height="29" transform="rotate(180,250,250) translate (-4.5,-250)"></rect><rect x="250" y="250" stroke="black" width="9" height="29" transform="rotate(210,250,250) translate (-4.5,-250)"></rect><rect x="250" y="250" stroke="black" width="9" height="29" transform="rotate(240,250,250) translate (-4.5,-250)"></rect><rect x="250" y="250" stroke="black" width="9" height="29" transform="rotate(270,250,250) translate (-4.5,-250)"></rect><rect x="250" y="250" stroke="black" width="9" height="29" transform="rotate(300,250,250) translate (-4.5,-250)"></rect><rect x="250" y="250" stroke="black" width="9" height="29" transform="rotate(330,250,250) translate (-4.5,-250)"></rect><rect x="250" y="250" stroke="black" width="2" height="20" transform="rotate(6,250,250) translate (-1,-250)"></rect><rect x="250" y="250" stroke="black" width="2" height="20" transform="rotate(12,250,250) translate (-1,-250)"></rect><rect x="250" y="250" stroke="black" width="2" height="20" transform="rotate(18,250,250) translate (-1,-250)"></rect><rect x="250" y="250" stroke="black" width="2" height="20" transform="rotate(24,250,250) translate (-1,-250)"></rect><rect x="250" y="250" stroke="black" width="2" height="20" transform="rotate(36,250,250) translate (-1,-250)"></rect><rect x="250" y="250" stroke="black" width="2" height="20" transform="rotate(42,250,250) translate (-1,-250)"></rect><rect x="250" y="250" stroke="black" width="2" height="20" transform="rotate(48,250,250) translate (-1,-250)"></rect><rect x="250" y="250" stroke="black" width="2" height="20" transform="rotate(54,250,250) translate (-1,-250)"></rect><rect x="250" y="250" stroke="black" width="2" height="20" transform="rotate(66,250,250) translate (-1,-250)"></rect><rect x="250" y="250" stroke="black" width="2" height="20" transform="rotate(72,250,250) translate (-1,-250)"></rect><rect x="250" y="250" stroke="black" width="2" height="20" transform="rotate(78,250,250) translate (-1,-250)"></rect><rect x="250" y="250" stroke="black" width="2" height="20" transform="rotate(84,250,250) translate (-1,-250)"></rect><rect x="250" y="250" stroke="black" width="2" height="20" transform="rotate(96,250,250) translate (-1,-250)"></rect><rect x="250" y="250" stroke="black" width="2" height="20" transform="rotate(102,250,250) translate (-1,-250)"></rect><rect x="250" y="250" stroke="black" width="2" height="20" transform="rotate(108,250,250) translate (-1,-250)"></rect><rect x="250" y="250" stroke="black" width="2" height="20" transform="rotate(114,250,250) translate (-1,-250)"></rect><rect x="250" y="250" stroke="black" width="2" height="20" transform="rotate(126,250,250) translate (-1,-250)"></rect><rect x="250" y="250" stroke="black" width="2" height="20" transform="rotate(132,250,250) translate (-1,-250)"></rect><rect x="250" y="250" stroke="black" width="2" height="20" transform="rotate(138,250,250) translate (-1,-250)"></rect><rect x="250" y="250" stroke="black" width="2" height="20" transform="rotate(144,250,250) translate (-1,-250)"></rect><rect x="250" y="250" stroke="black" width="2" height="20" transform="rotate(156,250,250) translate (-1,-250)"></rect><rect x="250" y="250" stroke="black" width="2" height="20" transform="rotate(162,250,250) translate (-1,-250)"></rect><rect x="250" y="250" stroke="black" width="2" height="20" transform="rotate(168,250,250) translate (-1,-250)"></rect><rect x="250" y="250" stroke="black" width="2" height="20" transform="rotate(174,250,250) translate (-1,-250)"></rect><rect x="250" y="250" stroke="black" width="2" height="20" transform="rotate(186,250,250) translate (-1,-250)"></rect><rect x="250" y="250" stroke="black" width="2" height="20" transform="rotate(192,250,250) translate (-1,-250)"></rect><rect x="250" y="250" stroke="black" width="2" height="20" transform="rotate(198,250,250) translate (-1,-250)"></rect><rect x="250" y="250" stroke="black" width="2" height="20" transform="rotate(204,250,250) translate (-1,-250)"></rect><rect x="250" y="250" stroke="black" width="2" height="20" transform="rotate(216,250,250) translate (-1,-250)"></rect><rect x="250" y="250" stroke="black" width="2" height="20" transform="rotate(222,250,250) translate (-1,-250)"></rect><rect x="250" y="250" stroke="black" width="2" height="20" transform="rotate(228,250,250) translate (-1,-250)"></rect><rect x="250" y="250" stroke="black" width="2" height="20" transform="rotate(234,250,250) translate (-1,-250)"></rect><rect x="250" y="250" stroke="black" width="2" height="20" transform="rotate(246,250,250) translate (-1,-250)"></rect><rect x="250" y="250" stroke="black" width="2" height="20" transform="rotate(252,250,250) translate (-1,-250)"></rect><rect x="250" y="250" stroke="black" width="2" height="20" transform="rotate(258,250,250) translate (-1,-250)"></rect><rect x="250" y="250" stroke="black" width="2" height="20" transform="rotate(264,250,250) translate (-1,-250)"></rect><rect x="250" y="250" stroke="black" width="2" height="20" transform="rotate(276,250,250) translate (-1,-250)"></rect><rect x="250" y="250" stroke="black" width="2" height="20" transform="rotate(282,250,250) translate (-1,-250)"></rect><rect x="250" y="250" stroke="black" width="2" height="20" transform="rotate(288,250,250) translate (-1,-250)"></rect><rect x="250" y="250" stroke="black" width="2" height="20" transform="rotate(294,250,250) translate (-1,-250)"></rect><rect x="250" y="250" stroke="black" width="2" height="20" transform="rotate(306,250,250) translate (-1,-250)"></rect><rect x="250" y="250" stroke="black" width="2" height="20" transform="rotate(312,250,250) translate (-1,-250)"></rect><rect x="250" y="250" stroke="black" width="2" height="20" transform="rotate(318,250,250) translate (-1,-250)"></rect><rect x="250" y="250" stroke="black" width="2" height="20" transform="rotate(324,250,250) translate (-1,-250)"></rect><rect x="250" y="250" stroke="black" width="2" height="20" transform="rotate(336,250,250) translate (-1,-250)"></rect><rect x="250" y="250" stroke="black" width="2" height="20" transform="rotate(342,250,250) translate (-1,-250)"></rect><rect x="250" y="250" stroke="black" width="2" height="20" transform="rotate(348,250,250) translate (-1,-250)"></rect><rect x="250" y="250" stroke="black" width="2" height="20" transform="rotate(354,250,250) translate (-1,-250)"></rect></svg>